<mxfile host="app.diagrams.net" modified="2023-04-22T00:08:07.765Z" agent="Mozilla/5.0 (Macintosh; Intel Mac OS X 10_15_7) AppleWebKit/537.36 (KHTML, like Gecko) Chrome/112.0.0.0 Safari/537.36" etag="I_cNmZxA1VanL0QDkj9w" version="21.2.1" type="github">
  <diagram name="Page-1" id="Y1ODvB7LsvBGm2zDx-UC">
    <mxGraphModel dx="934" dy="501" grid="0" gridSize="10" guides="1" tooltips="1" connect="1" arrows="1" fold="1" page="1" pageScale="1" pageWidth="850" pageHeight="1100" math="0" shadow="0">
      <root>
        <mxCell id="0" />
        <mxCell id="1" parent="0" />
        <mxCell id="pXgL8dPc-2ocBHSiSrJZ-89" value="" style="edgeStyle=orthogonalEdgeStyle;rounded=0;orthogonalLoop=1;jettySize=auto;html=1;fontFamily=Times New Roman;" edge="1" parent="1" source="pXgL8dPc-2ocBHSiSrJZ-59">
          <mxGeometry relative="1" as="geometry">
            <mxPoint x="140" y="500" as="targetPoint" />
          </mxGeometry>
        </mxCell>
        <mxCell id="pXgL8dPc-2ocBHSiSrJZ-59" value="Input Layer" style="rounded=0;whiteSpace=wrap;html=1;fontFamily=Times New Roman;" vertex="1" parent="1">
          <mxGeometry x="40" y="480" width="60" height="40" as="geometry" />
        </mxCell>
        <mxCell id="pXgL8dPc-2ocBHSiSrJZ-101" style="edgeStyle=orthogonalEdgeStyle;rounded=0;orthogonalLoop=1;jettySize=auto;html=1;exitX=1;exitY=0.5;exitDx=0;exitDy=0;entryX=0;entryY=0.5;entryDx=0;entryDy=0;fontFamily=Times New Roman;" edge="1" parent="1" target="pXgL8dPc-2ocBHSiSrJZ-65">
          <mxGeometry relative="1" as="geometry">
            <mxPoint x="210" y="500" as="sourcePoint" />
          </mxGeometry>
        </mxCell>
        <mxCell id="pXgL8dPc-2ocBHSiSrJZ-102" style="edgeStyle=orthogonalEdgeStyle;rounded=0;orthogonalLoop=1;jettySize=auto;html=1;exitX=1;exitY=0.5;exitDx=0;exitDy=0;entryX=0;entryY=0.5;entryDx=0;entryDy=0;fontFamily=Times New Roman;" edge="1" parent="1" source="pXgL8dPc-2ocBHSiSrJZ-65" target="pXgL8dPc-2ocBHSiSrJZ-77">
          <mxGeometry relative="1" as="geometry" />
        </mxCell>
        <mxCell id="pXgL8dPc-2ocBHSiSrJZ-65" value="" style="rounded=0;whiteSpace=wrap;html=1;fontFamily=Times New Roman;" vertex="1" parent="1">
          <mxGeometry x="240" y="455" width="20" height="90" as="geometry" />
        </mxCell>
        <mxCell id="pXgL8dPc-2ocBHSiSrJZ-70" value="Dropout" style="text;html=1;strokeColor=none;fillColor=none;align=center;verticalAlign=middle;whiteSpace=wrap;rounded=0;rotation=270;fontFamily=Times New Roman;" vertex="1" parent="1">
          <mxGeometry x="220" y="485" width="60" height="30" as="geometry" />
        </mxCell>
        <mxCell id="pXgL8dPc-2ocBHSiSrJZ-103" style="edgeStyle=orthogonalEdgeStyle;rounded=0;orthogonalLoop=1;jettySize=auto;html=1;exitX=1;exitY=0.5;exitDx=0;exitDy=0;entryX=0;entryY=0.5;entryDx=0;entryDy=0;fontFamily=Times New Roman;" edge="1" parent="1" source="pXgL8dPc-2ocBHSiSrJZ-77" target="pXgL8dPc-2ocBHSiSrJZ-81">
          <mxGeometry relative="1" as="geometry" />
        </mxCell>
        <mxCell id="pXgL8dPc-2ocBHSiSrJZ-77" value="Fully Connected Layer" style="rounded=0;whiteSpace=wrap;html=1;fontFamily=Times New Roman;" vertex="1" parent="1">
          <mxGeometry x="290" y="473.13" width="70" height="53.75" as="geometry" />
        </mxCell>
        <mxCell id="pXgL8dPc-2ocBHSiSrJZ-105" value="" style="edgeStyle=orthogonalEdgeStyle;rounded=0;orthogonalLoop=1;jettySize=auto;html=1;fontFamily=Times New Roman;" edge="1" parent="1" source="pXgL8dPc-2ocBHSiSrJZ-79" target="pXgL8dPc-2ocBHSiSrJZ-82">
          <mxGeometry relative="1" as="geometry" />
        </mxCell>
        <mxCell id="pXgL8dPc-2ocBHSiSrJZ-79" value="Fully Connected Layer" style="rounded=0;whiteSpace=wrap;html=1;fontFamily=Times New Roman;" vertex="1" parent="1">
          <mxGeometry x="440" y="473.13" width="70" height="53.75" as="geometry" />
        </mxCell>
        <mxCell id="pXgL8dPc-2ocBHSiSrJZ-107" value="" style="edgeStyle=orthogonalEdgeStyle;rounded=0;orthogonalLoop=1;jettySize=auto;html=1;fontFamily=Times New Roman;" edge="1" parent="1" source="pXgL8dPc-2ocBHSiSrJZ-80" target="pXgL8dPc-2ocBHSiSrJZ-83">
          <mxGeometry relative="1" as="geometry" />
        </mxCell>
        <mxCell id="pXgL8dPc-2ocBHSiSrJZ-80" value="Fully Connected Layer" style="rounded=0;whiteSpace=wrap;html=1;fontFamily=Times New Roman;" vertex="1" parent="1">
          <mxGeometry x="590" y="473.13" width="70" height="53.75" as="geometry" />
        </mxCell>
        <mxCell id="pXgL8dPc-2ocBHSiSrJZ-104" style="edgeStyle=orthogonalEdgeStyle;rounded=0;orthogonalLoop=1;jettySize=auto;html=1;exitX=1;exitY=0.5;exitDx=0;exitDy=0;entryX=0;entryY=0.5;entryDx=0;entryDy=0;fontFamily=Times New Roman;" edge="1" parent="1" source="pXgL8dPc-2ocBHSiSrJZ-81" target="pXgL8dPc-2ocBHSiSrJZ-79">
          <mxGeometry relative="1" as="geometry" />
        </mxCell>
        <mxCell id="pXgL8dPc-2ocBHSiSrJZ-81" value="" style="rounded=0;whiteSpace=wrap;html=1;fontFamily=Times New Roman;" vertex="1" parent="1">
          <mxGeometry x="390" y="455" width="20" height="90" as="geometry" />
        </mxCell>
        <mxCell id="pXgL8dPc-2ocBHSiSrJZ-106" value="" style="edgeStyle=orthogonalEdgeStyle;rounded=0;orthogonalLoop=1;jettySize=auto;html=1;fontFamily=Times New Roman;" edge="1" parent="1" source="pXgL8dPc-2ocBHSiSrJZ-82" target="pXgL8dPc-2ocBHSiSrJZ-80">
          <mxGeometry relative="1" as="geometry" />
        </mxCell>
        <mxCell id="pXgL8dPc-2ocBHSiSrJZ-82" value="" style="rounded=0;whiteSpace=wrap;html=1;fontFamily=Times New Roman;" vertex="1" parent="1">
          <mxGeometry x="540" y="455" width="20" height="90" as="geometry" />
        </mxCell>
        <mxCell id="pXgL8dPc-2ocBHSiSrJZ-110" value="" style="edgeStyle=orthogonalEdgeStyle;rounded=0;orthogonalLoop=1;jettySize=auto;html=1;fontFamily=Times New Roman;" edge="1" parent="1" source="pXgL8dPc-2ocBHSiSrJZ-83" target="pXgL8dPc-2ocBHSiSrJZ-108">
          <mxGeometry relative="1" as="geometry" />
        </mxCell>
        <mxCell id="pXgL8dPc-2ocBHSiSrJZ-83" value="" style="rounded=0;whiteSpace=wrap;html=1;fontFamily=Times New Roman;" vertex="1" parent="1">
          <mxGeometry x="690" y="455" width="20" height="90" as="geometry" />
        </mxCell>
        <mxCell id="pXgL8dPc-2ocBHSiSrJZ-86" value="Dropout" style="text;html=1;strokeColor=none;fillColor=none;align=center;verticalAlign=middle;whiteSpace=wrap;rounded=0;rotation=270;fontFamily=Times New Roman;" vertex="1" parent="1">
          <mxGeometry x="370" y="485" width="60" height="30" as="geometry" />
        </mxCell>
        <mxCell id="pXgL8dPc-2ocBHSiSrJZ-87" value="Dropout" style="text;html=1;strokeColor=none;fillColor=none;align=center;verticalAlign=middle;whiteSpace=wrap;rounded=0;rotation=270;fontFamily=Times New Roman;" vertex="1" parent="1">
          <mxGeometry x="520" y="485" width="60" height="30" as="geometry" />
        </mxCell>
        <mxCell id="pXgL8dPc-2ocBHSiSrJZ-88" value="Dropout" style="text;html=1;strokeColor=none;fillColor=none;align=center;verticalAlign=middle;whiteSpace=wrap;rounded=0;rotation=270;fontFamily=Times New Roman;" vertex="1" parent="1">
          <mxGeometry x="670" y="485" width="60" height="30" as="geometry" />
        </mxCell>
        <mxCell id="pXgL8dPc-2ocBHSiSrJZ-108" value="Ouput Layer" style="rounded=0;whiteSpace=wrap;html=1;fontFamily=Times New Roman;" vertex="1" parent="1">
          <mxGeometry x="750" y="480" width="60" height="40" as="geometry" />
        </mxCell>
        <mxCell id="pXgL8dPc-2ocBHSiSrJZ-111" value="Fully Connected Layer" style="rounded=0;whiteSpace=wrap;html=1;fontFamily=Times New Roman;" vertex="1" parent="1">
          <mxGeometry x="140" y="473.13" width="70" height="53.75" as="geometry" />
        </mxCell>
      </root>
    </mxGraphModel>
  </diagram>
</mxfile>
